{
    "asset" : {
        "generator" : "Khronos glTF Blender I/O v3.2.43",
        "version" : "2.0"
    },
    "scene" : 0,
    "scenes" : [
        {
            "name" : "Scene",
            "nodes" : [
                0,
                1
            ]
        }
    ],
    "nodes" : [
        {
            "mesh" : 0,
            "name" : "cerS",
            "translation" : [
                -5.895284175872803,
                -0.1623784303665161,
                -0.9536709189414978
            ]
        },
        {
            "mesh" : 1,
            "name" : "Cube",
            "scale" : [
                5,
                1,
                1
            ],
            "translation" : [
                0.0006536133587360382,
                -1.0351617336273193,
                -0.038858331739902496
            ]
        }
    ],
    "animations" : [
        {
            "channels" : [
                {
                    "sampler" : 0,
                    "target" : {
                        "node" : 0,
                        "path" : "weights"
                    }
                }
            ],
            "name" : "KeyAction.002",
            "samplers" : [
                {
                    "input" : 8,
                    "interpolation" : "LINEAR",
                    "output" : 9
                }
            ]
        }
    ],
    "materials" : [
        {
            "doubleSided" : true,
            "name" : "Material",
            "normalTexture" : {
                "index" : 0
            },
            "pbrMetallicRoughness" : {
                "baseColorTexture" : {
                    "index" : 1
                },
                "metallicFactor" : 0,
                "roughnessFactor" : 0.8272727131843567
            }
        }
    ],
    "meshes" : [
        {
            "name" : "Object005.002",
            "primitives" : [
                {
                    "attributes" : {
                        "POSITION" : 0,
                        "NORMAL" : 1,
                        "TEXCOORD_0" : 2
                    },
                    "indices" : 3,
                    "material" : 0
                }
            ]
        },
        {
            "name" : "Cube.005",
            "primitives" : [
                {
                    "attributes" : {
                        "POSITION" : 4,
                        "NORMAL" : 5,
                        "TEXCOORD_0" : 6
                    },
                    "indices" : 7
                }
            ]
        }
    ],
    "textures" : [
        {
            "sampler" : 0,
            "source" : 0
        },
        {
            "sampler" : 0,
            "source" : 1
        }
    ],
    "images" : [
        {
            "mimeType" : "image/png",
            "name" : "2K-velvet_2_normal",
            "uri" : "textures/2K-velvet_2_normal.png"
        },
        {
            "mimeType" : "image/png",
            "name" : "2K-velvet_2_basecolor",
            "uri" : "textures/2K-velvet_2_basecolor.png"
        }
    ],
    "accessors" : [
        {
            "bufferView" : 0,
            "componentType" : 5126,
            "count" : 4624,
            "max" : [
                11.047989845275879,
                10.136364936828613,
                0.261616975069046
            ],
            "min" : [
                0.743887186050415,
                0.1722867786884308,
                -0.1601482480764389
            ],
            "type" : "VEC3"
        },
        {
            "bufferView" : 1,
            "componentType" : 5126,
            "count" : 4624,
            "type" : "VEC3"
        },
        {
            "bufferView" : 2,
            "componentType" : 5126,
            "count" : 4624,
            "type" : "VEC2"
        },
        {
            "bufferView" : 3,
            "componentType" : 5123,
            "count" : 21120,
            "type" : "SCALAR"
        },
        {
            "bufferView" : 4,
            "componentType" : 5126,
            "count" : 24,
            "max" : [
                1,
                1,
                1
            ],
            "min" : [
                -1,
                -1,
                -1
            ],
            "type" : "VEC3"
        },
        {
            "bufferView" : 5,
            "componentType" : 5126,
            "count" : 24,
            "type" : "VEC3"
        },
        {
            "bufferView" : 6,
            "componentType" : 5126,
            "count" : 24,
            "type" : "VEC2"
        },
        {
            "bufferView" : 7,
            "componentType" : 5123,
            "count" : 36,
            "type" : "SCALAR"
        },
        {
            "bufferView" : 8,
            "componentType" : 5126,
            "count" : 240,
            "max" : [
                10
            ],
            "min" : [
                0.041666666666666664
            ],
            "type" : "SCALAR"
        },
        {
            "bufferView" : 9,
            "componentType" : 5126,
            "count" : 480,
            "type" : "SCALAR"
        }
    ],
    "bufferViews" : [
        {
            "buffer" : 0,
            "byteLength" : 55488,
            "byteOffset" : 0
        },
        {
            "buffer" : 0,
            "byteLength" : 55488,
            "byteOffset" : 55488
        },
        {
            "buffer" : 0,
            "byteLength" : 36992,
            "byteOffset" : 110976
        },
        {
            "buffer" : 0,
            "byteLength" : 42240,
            "byteOffset" : 147968
        },
        {
            "buffer" : 0,
            "byteLength" : 288,
            "byteOffset" : 190208
        },
        {
            "buffer" : 0,
            "byteLength" : 288,
            "byteOffset" : 190496
        },
        {
            "buffer" : 0,
            "byteLength" : 192,
            "byteOffset" : 190784
        },
        {
            "buffer" : 0,
            "byteLength" : 72,
            "byteOffset" : 190976
        },
        {
            "buffer" : 0,
            "byteLength" : 960,
            "byteOffset" : 191048
        },
        {
            "buffer" : 0,
            "byteLength" : 1920,
            "byteOffset" : 192008
        }
    ],
    "samplers" : [
        {
            "magFilter" : 9729,
            "minFilter" : 9987
        }
    ],
    "buffers" : [
        {
            "byteLength" : 193928,
            "uri" : "Curtains.bin"
        }
    ]
}
