<svg xmlns="http://www.w3.org/2000/svg" viewBox="0 0 589.54 68.91"><defs><style>.cls-1{fill:#595a55;}.cls-2{fill:#f2f2f2;}.cls-3{fill:#0c0c0c;}</style></defs><g id="Слой_2" data-name="Слой 2"><g id="Слой_1-2" data-name="Слой 1"><path class="cls-1" d="M44.67,8.22l-1.24,6.84H47L37.23,36.79l-1-21.73h3.2l1.29-6.84H27.88l-1.24,6.84h3.54L20.44,36.79l-.45-10L19.5,15.64l0-.58h3.17l1.25-6.84H9.33L8.06,15.06h3.52l0,.58.56,11.14L13.46,52.4h7l8.76-19.49.94,19.49h7.09L54,15.06h3.29l1.24-6.84Z"/><path class="cls-1" d="M75.62,30.09a21.08,21.08,0,0,1-.37,3.41L73,45.61h4.13l-1.5,6.5H64.19l.47-2.45Q61,52.51,58,52.51a6.86,6.86,0,0,1-5.3-2.34,8.76,8.76,0,0,1-2.12-6.1q0-5.68,3.37-8.49a13.54,13.54,0,0,1,9-2.81,10.63,10.63,0,0,1,3.15.42l1.59.48c.06-.31.16-.8.29-1.48a8.72,8.72,0,0,0,.2-1.72,3.31,3.31,0,0,0-1.23-2.7,4.76,4.76,0,0,0-3.11-1A11.19,11.19,0,0,0,58,28.84l-3.75-4.58A19.22,19.22,0,0,1,65,20.74a12.07,12.07,0,0,1,7.58,2.32Q75.62,25.37,75.62,30.09ZM60.48,46.63c1.53,0,3.28-.9,5.23-2.71l.92-5a11.7,11.7,0,0,0-3.73-.64,5.66,5.66,0,0,0-3.75,1.31,4.44,4.44,0,0,0-1.56,3.58,3.72,3.72,0,0,0,.84,2.45A2.59,2.59,0,0,0,60.48,46.63Z"/><path class="cls-1" d="M98.8,23.13l.28-1.63h5.36l-1.7,9h-5a4.56,4.56,0,0,0-1.61-2.7,4.71,4.71,0,0,0-2.9-.88,5.32,5.32,0,0,0-2.61.65,2.12,2.12,0,0,0-1.2,2,2.09,2.09,0,0,0,1.11,1.79,16.64,16.64,0,0,0,3.94,1.53,14.22,14.22,0,0,1,6.15,3.42,8.38,8.38,0,0,1,2.07,6.07c0,3.26-1.06,5.76-3.19,7.48a12.85,12.85,0,0,1-8.36,2.6,11.1,11.1,0,0,1-6.91-2l-.3,1.72H78.51l2-10.55h4.86q.87,5.19,5.76,5.19t4.81-3.06a2.27,2.27,0,0,0-1.17-2A20.44,20.44,0,0,0,90.3,40a12.45,12.45,0,0,1-5.87-3.36A8.78,8.78,0,0,1,82.6,30.7a8.83,8.83,0,0,1,2.86-6.93A10.91,10.91,0,0,1,93,21.21,8.84,8.84,0,0,1,98.8,23.13Z"/><path class="cls-1" d="M126.6,21.15a4.71,4.71,0,0,1,4,2,8.8,8.8,0,0,1,1.49,5.41,15.72,15.72,0,0,1-.23,2.73q-.24,1.38-.33,2l-2.37,12.35h3.33l-1.15,6.5H120.4l3.55-19a12.45,12.45,0,0,0,.26-1.92,3.84,3.84,0,0,0-.41-1.91,1.42,1.42,0,0,0-1.33-.71q-2.11,0-5.64,3.52l-2.48,13.54h3.31l-1.2,6.5H102.89l1.19-6.5h2.7l5.73-30.84H109.2l1.25-6.55h10.92l-3.29,17.24a24.72,24.72,0,0,1,4.81-3.38A8.54,8.54,0,0,1,126.6,21.15Z"/><path class="cls-1" d="M150.11,45.61l-1.2,6.5H135.34l1.15-6.5h2.75l3.26-17.53h-3.31l1.2-6.58h10.87L146.8,45.61Zm3-33.11a5.59,5.59,0,0,1-1.22,3.61,3.69,3.69,0,0,1-3,1.51,3.57,3.57,0,0,1-2.89-1.51,5.63,5.63,0,0,1-1.2-3.61,5.64,5.64,0,0,1,1.18-3.64A3.57,3.57,0,0,1,149,7.37a3.69,3.69,0,0,1,3,1.49A5.6,5.6,0,0,1,153.14,12.5Z"/><path class="cls-1" d="M182.09,28.31a12.35,12.35,0,0,1-.14,1.88c-.09.65-.26,1.58-.49,2.78l-2.35,12.64h3.36l-1.2,6.5H170.35L174,32.77a13.93,13.93,0,0,0,.19-1.66,3.55,3.55,0,0,0-.46-1.91,1.55,1.55,0,0,0-1.38-.71q-1.87,0-5.61,3.4l-2.56,13.72h3.13l-1.2,6.5H152.72l1.19-6.5h2.7l3.27-17.53h-3.71l1.2-6.58h11.27l-.73,3.81a18.28,18.28,0,0,1,4.48-3.26,10.68,10.68,0,0,1,4.51-.9,4.43,4.43,0,0,1,3.77,2A8.7,8.7,0,0,1,182.09,28.31Z"/><path class="cls-1" d="M205.5,26l1-5.45h10.42l-1.19,7.07H213l-4.34,24.78q-2.85,16.5-15.34,16.49A19.31,19.31,0,0,1,182,65.69l2.3-7.29c3,1.88,5.74,2.81,8.08,2.81a8.39,8.39,0,0,0,4.68-1.12,7.48,7.48,0,0,0,2.69-3.52,32.68,32.68,0,0,0,1.72-6.71l-.1-.19q-3.21,4-6.69,4A7.29,7.29,0,0,1,188.09,50q-2.26-3.68-2.26-9.9a28.25,28.25,0,0,1,1.64-9.69,19,19,0,0,1,4.58-7.37,9.35,9.35,0,0,1,6.62-2.81Q203.07,20.26,205.5,26Zm-7.89,20a4.27,4.27,0,0,0,3.49-1.85,12.48,12.48,0,0,0,2.13-4.57,21.42,21.42,0,0,0,.7-5.41,8,8,0,0,0-1.09-4.39,3.31,3.31,0,0,0-2.9-1.71,4.23,4.23,0,0,0-3.44,2,13.89,13.89,0,0,0-2.24,4.74,19.58,19.58,0,0,0-.78,5.28,7.68,7.68,0,0,0,1.08,4.32A3.45,3.45,0,0,0,197.61,46Z"/><path class="cls-1" d="M264.68,24.84A39.19,39.19,0,0,1,262.31,39a22.82,22.82,0,0,1-6.5,9.59A14.06,14.06,0,0,1,246.59,52H227.71l1.2-7.38h4l5.19-32.36h-4l1.24-7.35H249a14.43,14.43,0,0,1,11.4,4.92Q264.69,14.71,264.68,24.84Zm-8.54-.35c0-3.74-.68-6.73-2-8.95a6.41,6.41,0,0,0-5.75-3.32h-1.92l-5.19,32.36h5q3.16,0,5.42-3.21A23,23,0,0,0,255,33.48,38.9,38.9,0,0,0,256.14,24.49Z"/><path class="cls-1" d="M278.29,45l-1.12,7h-12.6l1.07-7h2.55l3-18.81h-3.07l1.11-7.06h10.09L275.21,45ZM281.1,9.47A6.55,6.55,0,0,1,280,13.34,3.28,3.28,0,0,1,277.22,15a3.2,3.2,0,0,1-2.68-1.62,6.68,6.68,0,0,1-1.11-3.87,6.72,6.72,0,0,1,1.09-3.91A3.18,3.18,0,0,1,277.22,4,3.31,3.31,0,0,1,280,5.56,6.65,6.65,0,0,1,281.1,9.47Z"/><path class="cls-1" d="M299.76,20.87l.26-1.75h5l-1.57,9.62h-4.69a5,5,0,0,0-1.49-2.89,4,4,0,0,0-2.69-1,4.52,4.52,0,0,0-2.42.7A2.34,2.34,0,0,0,291,27.71a2.31,2.31,0,0,0,1,1.92,13.92,13.92,0,0,0,3.66,1.64A13,13,0,0,1,301.41,35a9.87,9.87,0,0,1,1.92,6.51q0,5.25-3,8a10.92,10.92,0,0,1-7.76,2.78,9.36,9.36,0,0,1-6.41-2.15L285.92,52h-5l1.84-11.31h4.51q.8,5.57,5.34,5.56t4.47-3.28A2.53,2.53,0,0,0,296,40.79,17.26,17.26,0,0,0,291.87,39a11.33,11.33,0,0,1-5.45-3.61,10.37,10.37,0,0,1-1.7-6.36,10.2,10.2,0,0,1,2.66-7.43,9.29,9.29,0,0,1,7-2.75A7.53,7.53,0,0,1,299.76,20.87Z"/><path class="cls-1" d="M329.66,28.34a26.09,26.09,0,0,1-.34,3.65l-2.14,13H331l-1.4,7H319.05l.44-2.63c-2.26,2.05-4.32,3.07-6.2,3.07a6,6,0,0,1-4.91-2.52,10.28,10.28,0,0,1-2-6.55q0-6.09,3.12-9.1a11.5,11.5,0,0,1,8.32-3,8.38,8.38,0,0,1,2.93.46l1.47.51c.06-.33.15-.86.28-1.59a11.76,11.76,0,0,0,.18-1.85,3.8,3.8,0,0,0-1.14-2.89,4.1,4.1,0,0,0-2.89-1.07A9.54,9.54,0,0,0,313.34,27l-3.49-4.9a16.22,16.22,0,0,1,10-3.78,10.26,10.26,0,0,1,7,2.48C328.73,22.45,329.66,25,329.66,28.34ZM315.6,46.08c1.43,0,3-1,4.87-2.9l.85-5.37a9.41,9.41,0,0,0-3.47-.69,4.86,4.86,0,0,0-3.48,1.4,5.14,5.14,0,0,0-1.45,3.85,4.33,4.33,0,0,0,.79,2.62A2.27,2.27,0,0,0,315.6,46.08Z"/><path class="cls-1" d="M351.18,20.87l.26-1.75h5l-1.57,9.62h-4.68a5.09,5.09,0,0,0-1.5-2.89,4,4,0,0,0-2.69-1,4.52,4.52,0,0,0-2.42.7,2.34,2.34,0,0,0-1.11,2.11,2.31,2.31,0,0,0,1,1.92,13.92,13.92,0,0,0,3.66,1.64A13.11,13.11,0,0,1,352.84,35a9.87,9.87,0,0,1,1.91,6.51c0,3.5-1,6.18-3,8A10.9,10.9,0,0,1,344,52.27a9.36,9.36,0,0,1-6.41-2.15L337.34,52h-5l1.83-11.31h4.51q.81,5.57,5.34,5.56t4.47-3.28a2.5,2.5,0,0,0-1.09-2.14A17.26,17.26,0,0,0,343.29,39a11.33,11.33,0,0,1-5.45-3.61,10.43,10.43,0,0,1-1.7-6.36,10.2,10.2,0,0,1,2.66-7.43,9.29,9.29,0,0,1,7-2.75A7.52,7.52,0,0,1,351.18,20.87Z"/><path class="cls-1" d="M374.66,19.12l-1.11,7.06H369l-2.5,15.16c-.12,1-.18,1.63-.18,1.84,0,1.21.48,1.81,1.44,1.81a6.12,6.12,0,0,0,3.38-1.59l-1.24,7.53a10.53,10.53,0,0,1-5.85,2,4.35,4.35,0,0,1-3.65-1.8,7.85,7.85,0,0,1-1.36-4.86,37.34,37.34,0,0,1,.55-5.5L362,26.18h-2.68l1.13-7.06h2.66l.81-4.72L372.24,6l-2.1,13.09Z"/><path class="cls-1" d="M398,33a31.23,31.23,0,0,1-.33,4.6H381.39a13.29,13.29,0,0,0-.17,2.12,9,9,0,0,0,1.15,4.8,3.53,3.53,0,0,0,3.12,1.86c1.93,0,3.5-1.41,4.69-4.22l5.19,3.31A13.54,13.54,0,0,1,391,51.1a10.15,10.15,0,0,1-5.93,1.83,9,9,0,0,1-7.6-3.81c-1.89-2.55-2.84-6-2.84-10.41a31,31,0,0,1,1.61-10.08,17.77,17.77,0,0,1,4.62-7.51,10,10,0,0,1,7-2.81,8.35,8.35,0,0,1,5.25,1.78,11.57,11.57,0,0,1,3.59,5.14A21.45,21.45,0,0,1,398,33Zm-6.56-2.31a8.19,8.19,0,0,0-.94-4.25,3,3,0,0,0-2.68-1.56q-4,0-5.54,7.34h9.07Q391.4,31.28,391.4,30.71Z"/><path class="cls-1" d="M421.42,19.12,420,27.9a7,7,0,0,0-2.16-.37q-5.7,0-7.3,10.68L409.49,45h3.58L412,52H398.61l1.12-7h2.76l3-18.81h-3.11l1.11-7.06h9.33l-1.57,9.56.09.13A28.43,28.43,0,0,1,415.2,21a5.38,5.38,0,0,1,4.25-2.2A8.08,8.08,0,0,1,421.42,19.12Z"/><path class="cls-1" d="M463.19,4l.6-3.64h5.66L467.22,14h-5.66l0-1.06a4.69,4.69,0,0,0-1.12-3.23,3.64,3.64,0,0,0-2.86-1.27,3.34,3.34,0,0,0-2.46,1,3.7,3.7,0,0,0-1,2.75,6.81,6.81,0,0,0,.81,3.4,28.07,28.07,0,0,0,2.89,3.92,33,33,0,0,1,5.37,8.26,21.65,21.65,0,0,1,1.62,8.53A23.23,23.23,0,0,1,463.32,45,14.25,14.25,0,0,1,459.2,51a8.87,8.87,0,0,1-5.7,2.11,6.78,6.78,0,0,1-3.87-1.17,11.48,11.48,0,0,1-3.22-3.64l-.64,3.88h-5.93L442.43,36h5.92a12.53,12.53,0,0,0-.21,2.27,6.7,6.7,0,0,0,1.15,4,3.38,3.38,0,0,0,2.83,1.65A4,4,0,0,0,455.43,42a7.7,7.7,0,0,0,1.36-4.64,9.56,9.56,0,0,0-.62-3.67,44.79,44.79,0,0,0-4.09-6.18q-3-4.5-3.9-6.08a14.8,14.8,0,0,1-1.4-3.42,16,16,0,0,1-.51-4.27,18.65,18.65,0,0,1,1.28-7.15,11.28,11.28,0,0,1,3.57-4.86A8.24,8.24,0,0,1,456.2,0,7.76,7.76,0,0,1,463.19,4Z"/><path class="cls-1" d="M494.32,31a30.12,30.12,0,0,1-2,11.28,19.69,19.69,0,0,1-5.54,8,11.72,11.72,0,0,1-7.66,2.92,9.07,9.07,0,0,1-5.66-1.88,12.28,12.28,0,0,1-3.84-5.27,21,21,0,0,1-1.38-7.93,33,33,0,0,1,1.91-11.38,20.53,20.53,0,0,1,5.47-8.44,11.63,11.63,0,0,1,7.93-3.15,8.65,8.65,0,0,1,5.58,2,12.79,12.79,0,0,1,3.85,5.58A22.88,22.88,0,0,1,494.32,31ZM479.57,45.09a4.58,4.58,0,0,0,3.83-2.45,18.39,18.39,0,0,0,2.41-6,30.86,30.86,0,0,0,.8-6.72,10.27,10.27,0,0,0-1-4.82,3.09,3.09,0,0,0-2.8-1.88A4.5,4.5,0,0,0,479,25.72a19.15,19.15,0,0,0-2.31,6.06,32,32,0,0,0-.76,6.72,10.2,10.2,0,0,0,1,4.77A3,3,0,0,0,479.57,45.09Z"/><path class="cls-1" d="M509.13,44.47l-1.2,7.66H494.18l1.21-7.66h2.77L503.94,8.1h-3.55L501.62.38h11.17l-7,44.09Z"/><path class="cls-1" d="M521.27,23.8l1.35,17.14,6.85-17.14h-3L527.67,16h13.16l-1.21,7.76h-3.37l-12,28.81h-6.85L514,23.8h-2.7L512.48,16h13.06l-1.26,7.76Z"/><path class="cls-1" d="M564,31.32a34.6,34.6,0,0,1-.36,5H546a13.65,13.65,0,0,0-.19,2.33A10,10,0,0,0,547.09,44a3.81,3.81,0,0,0,3.39,2q3.15,0,5.09-4.64L561.22,45a14.87,14.87,0,0,1-4.77,6.17,11,11,0,0,1-6.45,2A9.75,9.75,0,0,1,541.73,49q-3.09-4.2-3.08-11.44a34.53,34.53,0,0,1,1.74-11.08,19.73,19.73,0,0,1,5-8.25A10.73,10.73,0,0,1,553,15.15a9,9,0,0,1,5.7,2,12.75,12.75,0,0,1,3.92,5.65A24,24,0,0,1,564,31.32Zm-7.14-2.54a9.11,9.11,0,0,0-1-4.67A3.2,3.2,0,0,0,553,22.39q-4.4,0-6,8.07h9.86Q556.9,29.4,556.9,28.78Z"/><path class="cls-1" d="M587.41,15.7a5.83,5.83,0,0,0-4.63,2.42q-2,2.41-4.17,8.56l-.09-.13L580.22,16H570.08l-1.21,7.76h3.39L569,44.47h-3l0,.2-1.17,7.41v.05h14.51v-.05l1.17-7.41,0-.2h-3.89L577.76,37q1.72-11.75,7.94-11.74a7.41,7.41,0,0,1,2.35.41L589.54,16A8.68,8.68,0,0,0,587.41,15.7Z"/><polygon class="cls-2" points="579.21 52.08 578.37 57.42 0.59 57.42 0.32 52.08 579.21 52.08"/><polygon class="cls-2" points="589.54 52.08 588.7 57.42 583.16 57.42 583.84 53.12 584.01 52.08 589.54 52.08"/><polygon class="cls-3" points="578.89 54.17 578.05 59.51 0.27 59.51 0 54.17 578.89 54.17"/><polygon class="cls-3" points="589.21 54.17 588.37 59.51 582.83 59.51 583.51 55.21 583.68 54.17 589.21 54.17"/></g></g></svg>