<svg xmlns="http://www.w3.org/2000/svg" viewBox="0 0 363.69 95.85"><defs><style>.cls-1{fill:#f2f2f4;}.cls-2{fill:#a0a0a0;}</style></defs><g id="Слой_2" data-name="Слой 2"><g id="Слой_1-2" data-name="Слой 1"><path class="cls-1" d="M309.12,66.54V95.43h-8.19V66.14a10,10,0,0,0-.59-3.45,8.75,8.75,0,0,0-.42-1,9.15,9.15,0,0,0-1.19-1.89,7.65,7.65,0,0,0-2.34-2,6,6,0,0,0-2.85-.73,10,10,0,0,0-3.23.5A17.58,17.58,0,0,0,287.05,59a16.88,16.88,0,0,0-3,2A12.15,12.15,0,0,0,282,63V95.43h-8.17q0-29.82,0-59.62V33.22l5.87-2.39H282v5q0,10.92,0,21.84a32.06,32.06,0,0,1,3.1-2.48,22.16,22.16,0,0,1,3.82-2.29,21.06,21.06,0,0,1,7.64-1.53h1a10.62,10.62,0,0,1,2.36.3,11.49,11.49,0,0,1,1.31.4,12.55,12.55,0,0,1,6.16,4.83A9.22,9.22,0,0,1,308.51,59a9.46,9.46,0,0,1,.42,1.55C309,62.53,309.06,64.54,309.12,66.54Z"/><path class="cls-1" d="M103.77,87.43l0,4.3c-.39.25-.78.46-1.17.67-1,.61-2.08,1.16-3.07,1.61h0l-.76.34A13.49,13.49,0,0,1,93,95.43h-.16c-3.28-.05-5.59-1.3-6.93-3.71a12.82,12.82,0,0,1-.89-2v0a24.2,24.2,0,0,1-1.1-7.12c0-.33,0-.66,0-1v-.21c0-.27,0-.55,0-.83q-.14-12.29.11-24.2l-6.77,0V55l6.62-1.82L84,40.3l5.68-2.23h2.08q.09,7.55.19,15.1l9.14,0v3.2l-9.39,0-.1,22.38h0c0,.67,0,1.3.09,1.87a14.73,14.73,0,0,0,.86,4.24,5.21,5.21,0,0,0,1.92,2.58,3.78,3.78,0,0,0,.59.34,6.62,6.62,0,0,0,2.91.56,21.27,21.27,0,0,0,3-.24c.44,0,.84-.12,1.19-.19A6.52,6.52,0,0,0,103.77,87.43Z"/><path class="cls-1" d="M270.76,95.43l-10.74,0-15.95-19.2q0,9.61-.08,19.24H236.1V33.34L242,30.83h2.33q0,12.56,0,25.11,0,9.94,0,19.89L256.37,55l7.7-2.35h.5l-12,20.86,0,0,0,0Z"/><polygon class="cls-1" points="244.28 30.83 244.28 30.84 242.34 30.83 244.28 30.83"/><path class="cls-1" d="M228.28,91.72c.11-.11.22-.22.31-.33a4.28,4.28,0,0,1-.29.33Z"/><path class="cls-1" d="M36.46,94.61a10,10,0,0,1-1.33-.91,6.85,6.85,0,0,1-.84-.8,6.41,6.41,0,0,1-.53-.65,5.74,5.74,0,0,1-1.08-3.46l.11-26.16A14,14,0,0,0,32.11,58a8,8,0,0,0-2.33-3.56,11.65,11.65,0,0,0-4.36-2.27,24.28,24.28,0,0,0-6.73-.84,23.23,23.23,0,0,0-6.05.77,17.58,17.58,0,0,0-5.2,2.23,13.65,13.65,0,0,0-3.82,3.59,10.69,10.69,0,0,0-1.83,4.87l7.45,0a13,13,0,0,1,1-3.37A9.81,9.81,0,0,1,12,56.72a8.71,8.71,0,0,1,2.55-1.87,7.22,7.22,0,0,1,3.18-.69,6.26,6.26,0,0,1,3.11.55,5.63,5.63,0,0,1,2.59,2.51C25,60.58,21.74,65.81,19,67.77a20.63,20.63,0,0,1-3,1.74,26.37,26.37,0,0,1-2.62,1A41.79,41.79,0,0,0,8.2,72.94a22.77,22.77,0,0,0-4.26,3,13.08,13.08,0,0,0-2.87,3.9A11.29,11.29,0,0,0,0,84.81,11.47,11.47,0,0,0,.73,89a10,10,0,0,0,2.06,3.37,9.56,9.56,0,0,0,3.29,2.22A9.67,9.67,0,0,0,9,95.31a11.43,11.43,0,0,0,1.45.08c.65,0,1.28,0,1.87-.07A13.11,13.11,0,0,0,15,94.81a17,17,0,0,0,3.63-1.58,22.34,22.34,0,0,0,3-2.17c.92-.79,1.86-1.56,2.84-2.31a5.33,5.33,0,0,0,.17,1.5,6.73,6.73,0,0,0,.91,2,12.41,12.41,0,0,0,1.19,1.6,6.4,6.4,0,0,0,.95.85,5.86,5.86,0,0,0,1.43.73l8.65,0ZM22.12,87.46a22.91,22.91,0,0,1-2.32,1.47,11.93,11.93,0,0,1-2.41,1,9.41,9.41,0,0,1-2.61.37,5.69,5.69,0,0,1-2.49-.62A7,7,0,0,1,10.17,88a9.36,9.36,0,0,1-1.48-2.45,8,8,0,0,1-.54-3,6.32,6.32,0,0,1,.74-2.85,8.8,8.8,0,0,1,3.51-3.52c4.82-3.12,6.6-3.55,9.26-5.8a20.74,20.74,0,0,0,2.85-3V85.7C23.7,86.33,22.9,86.92,22.12,87.46Z"/><path class="cls-1" d="M229.47,64.21A20.62,20.62,0,0,0,225,57.52a21.12,21.12,0,0,0-6.8-4.5,22.47,22.47,0,0,0-8.61-1.67,20.94,20.94,0,0,0-8.7,1.74A21.25,21.25,0,0,0,194,57.94a22.61,22.61,0,0,0-4.53,7.23A24.2,24.2,0,0,0,187.8,74a22,22,0,0,0,1.58,8.47,21,21,0,0,0,11.3,11.59A20,20,0,0,0,205,95.43a22.63,22.63,0,0,0,4.42.42,20.64,20.64,0,0,0,4.35-.42A18.56,18.56,0,0,0,218,94a21.23,21.23,0,0,0,6.85-5,23.4,23.4,0,0,0,4.55-7.46A26,26,0,0,0,231,72.43,21.22,21.22,0,0,0,229.47,64.21Zm-8.4,18.71A18.3,18.3,0,0,1,218.81,88a11.59,11.59,0,0,1-3.47,3.47,7.79,7.79,0,0,1-4.41,1.28,10.33,10.33,0,0,1-6-1.81,15.25,15.25,0,0,1-4.44-4.83,24.94,24.94,0,0,1-2.72-7.16,39.06,39.06,0,0,1-.9-8.78,20.46,20.46,0,0,1,.91-6.08,18.52,18.52,0,0,1,2.36-5,11.92,11.92,0,0,1,3.4-3.36,7.33,7.33,0,0,1,4-1.21,12.54,12.54,0,0,1,6.73,1.76,13.39,13.39,0,0,1,4.46,4.77,22.62,22.62,0,0,1,2.44,7.08,46.81,46.81,0,0,1,.72,8.69A22.87,22.87,0,0,1,221.07,82.92Z"/><path class="cls-1" d="M115.5,42.9a5,5,0,0,1-.37,1.88,4.59,4.59,0,0,1-4.31,2.91,4.36,4.36,0,0,1-1.79-.38,4.77,4.77,0,0,1-1.49-1,4.7,4.7,0,0,1-1.34-3.41,4.82,4.82,0,0,1,.36-1.86,4.74,4.74,0,0,1,1-1.53,4.82,4.82,0,0,1,1.5-1,4.52,4.52,0,0,1,1.8-.36,4.42,4.42,0,0,1,1.81.38,4.62,4.62,0,0,1,1.47,1,4.5,4.5,0,0,1,1,1.55A4.81,4.81,0,0,1,115.5,42.9Z"/><path class="cls-1" d="M110.69,61.89l-.17-.18h0A1.43,1.43,0,0,1,110.69,61.89Z"/><polygon class="cls-1" points="322.64 51.41 322.45 95.43 314.7 95.43 314.88 53.76 320.47 51.4 322.64 51.41"/><path class="cls-1" d="M322.07,39.6a4.54,4.54,0,0,0-1.47-1.05,4.42,4.42,0,0,0-1.81-.38,4.56,4.56,0,0,0-1.8.36,4.82,4.82,0,0,0-1.49,1,4.65,4.65,0,0,0-1,1.54,5.06,5.06,0,0,0-.36,1.87,5.15,5.15,0,0,0,.35,1.88,4.81,4.81,0,0,0,1,1.54A4.93,4.93,0,0,0,317,47.45a4.59,4.59,0,0,0,3.61,0,5,5,0,0,0,2.5-2.57,4.77,4.77,0,0,0,.36-1.88,4.68,4.68,0,0,0-.35-1.87A4.5,4.5,0,0,0,322.07,39.6Z"/><polygon class="cls-1" points="308.78 95.43 308.78 95.5 300.95 95.47 300.8 95.47 300.8 95.43 308.78 95.43"/><polygon class="cls-1" points="328.26 87.38 328.25 90.73 328.25 87.38 328.26 87.38"/><polygon class="cls-1" points="149.34 92.68 149.33 95.28 149.33 92.68 149.34 92.68"/><path class="cls-1" d="M363.69,87.27v8.16h-8.17q0-4.08,0-8.16l.09-21.16a9.72,9.72,0,0,0-.6-3.44c-.12-.34-.26-.67-.4-1a9.07,9.07,0,0,0-1.2-1.89,7.59,7.59,0,0,0-2.35-1.95,6.11,6.11,0,0,0-2.84-.72,10.7,10.7,0,0,0-3.24.48A17.58,17.58,0,0,0,341.77,59a15.78,15.78,0,0,0-3,1.95,11.79,11.79,0,0,0-2.23,2.31V95.43h-8.17V53.75l5.85-2.41h2.35l0,6.42a29.81,29.81,0,0,1,3.24-2.61,31.38,31.38,0,0,1,3.83-2.28,21.23,21.23,0,0,1,7.58-1.53l1.1,0a10.62,10.62,0,0,1,2.36.3c.43.1.87.24,1.31.39A12.21,12.21,0,0,1,359.45,54a12.54,12.54,0,0,1,2.71,2.91A9.82,9.82,0,0,1,363.23,59a8.62,8.62,0,0,1,.42,1.55Q363.67,73.89,363.69,87.27Z"/><path class="cls-1" d="M355.56,87.27q0,4.08,0,8.16V87.27Z"/><polygon class="cls-1" points="308.78 95.43 308.78 95.5 300.95 95.47 300.95 95.43 308.78 95.43"/><polygon class="cls-1" points="175.56 67.96 175.54 72.97 175.54 67.96 175.56 67.96"/><path class="cls-1" d="M183.71,65.09V95.43h-8.17l0-29.19a10.16,10.16,0,0,0-.56-3.43A9.27,9.27,0,0,0,173.43,60,7.76,7.76,0,0,0,171.09,58a6,6,0,0,0-2.81-.72,12.62,12.62,0,0,0-3.45.47,16.62,16.62,0,0,0-3.31,1.3,13.35,13.35,0,0,0-2.86,2,13.16,13.16,0,0,0-2.16,2.5q0,16,0,31.91h-8.15c.1-16.21.14-28,.13-29.31a12.23,12.23,0,0,0-.33-2.59c-.07-.28-.16-.56-.26-.84s-.26-.66-.41-1a9.55,9.55,0,0,0-1.2-1.88,7.64,7.64,0,0,0-2.34-1.94,6.15,6.15,0,0,0-2.85-.72,10.61,10.61,0,0,0-3.23.49A17.58,17.58,0,0,0,134.58,59a17.16,17.16,0,0,0-3,1.94,12.64,12.64,0,0,0-2.23,2.3V95.43h-8.17V53.73l5.88-2.38h2.32l0,6.45a31.37,31.37,0,0,1,3.25-2.59,22.27,22.27,0,0,1,3.83-2.28,21.23,21.23,0,0,1,7.68-1.51h1a11.27,11.27,0,0,1,2.36.3,10.91,10.91,0,0,1,1.31.4,12.26,12.26,0,0,1,3.45,1.9,12.48,12.48,0,0,1,2.71,2.9A9,9,0,0,1,156,59a8.88,8.88,0,0,1,.42,1.53c.06-.09.1-.18.16-.27A13.87,13.87,0,0,1,159.26,57a21,21,0,0,1,4-2.87,22.54,22.54,0,0,1,4.61-1.92,17.72,17.72,0,0,1,4.75-.69,9.17,9.17,0,0,1,4.35,1.09,11.93,11.93,0,0,1,3.54,2.93,14,14,0,0,1,2.39,4.29A15.55,15.55,0,0,1,183.71,65.09Z"/><polygon class="cls-1" points="115.1 51.37 115.01 72.24 115.01 95.43 106.84 95.43 106.84 53.7 112.79 51.36 115.1 51.37"/><path class="cls-1" d="M73,30.83,67.17,33.2q0,11-.1,22.07L67,55.18a13.49,13.49,0,0,0-4.05-2.78,12.77,12.77,0,0,0-3.46-1,12.53,12.53,0,0,0-1.77-.12,18.94,18.94,0,0,0-8.36,1.86,23,23,0,0,0-6.86,5.07,24.64,24.64,0,0,0-4.67,7.24,21.47,21.47,0,0,0-1.75,8.4,25.05,25.05,0,0,0,1.33,8.29A22.92,22.92,0,0,0,41.07,89a18.32,18.32,0,0,0,5.48,4.74,13.56,13.56,0,0,0,5.07,1.65,13.29,13.29,0,0,0,1.68.11,14.78,14.78,0,0,0,2-.11c.52-.05,1-.12,1.55-.21a26.4,26.4,0,0,0,3.6-1,23.16,23.16,0,0,0,3.43-1.56s1.08-.61,1.9-1.21a6.07,6.07,0,0,0,1.13-1.09l0,0,0,5.1H75l.06-12.92V30.84Zm-6.1,55.88a12.48,12.48,0,0,1-1.75,1.62A15.23,15.23,0,0,1,63,89.7a13.23,13.23,0,0,1-2.46,1,10.16,10.16,0,0,1-2.6.35,9.12,9.12,0,0,1-5-1.56,14.19,14.19,0,0,1-4.07-4.16,22.08,22.08,0,0,1-2.71-6.2,27.28,27.28,0,0,1-1-7.6,24.16,24.16,0,0,1,1-6.92,18.16,18.16,0,0,1,2.52-5.41,11.78,11.78,0,0,1,3.74-3.49,9.26,9.26,0,0,1,2.17-.92,9,9,0,0,1,3.63-.21,9.14,9.14,0,0,1,2.44.73,9.24,9.24,0,0,1,1.23.65,10.49,10.49,0,0,1,2,1.66,15.57,15.57,0,0,1,2.34,3.54,11.24,11.24,0,0,1,.74,2.51Z"/><path class="cls-1" d="M66.92,90.33l0,5.1V90.37Z"/><path class="cls-1" d="M75.06,30.83h0Z"/><path class="cls-1" d="M75.06,82.51V95.43H75Z"/><path class="cls-2" d="M11.29,21.2a7.93,7.93,0,0,1-1.11.74,8.18,8.18,0,0,1-1.25.55,9.07,9.07,0,0,1-1.31.35A6.42,6.42,0,0,1,6.33,23a5.17,5.17,0,0,1-2.47-.62,6.63,6.63,0,0,1-2-1.65A8,8,0,0,1,.5,18.27,8.57,8.57,0,0,1,0,15.35a7.48,7.48,0,0,1,.62-3A8.79,8.79,0,0,1,2.31,9.84,8.44,8.44,0,0,1,4.81,8a7.05,7.05,0,0,1,3.06-.67,4.52,4.52,0,0,1,1.91.38,6,6,0,0,1,1.51,1V.85L13.39,0h.86V22.65h-3Zm0-8.78a3.82,3.82,0,0,0-.33-1.6,4,4,0,0,0-.85-1.25,3.88,3.88,0,0,0-1.2-.8,3.32,3.32,0,0,0-3,.15,4.28,4.28,0,0,0-1.35,1.24,6.46,6.46,0,0,0-.92,1.9A8.52,8.52,0,0,0,3.3,14.5a9.59,9.59,0,0,0,.36,2.68,7.69,7.69,0,0,0,1,2.18,4.92,4.92,0,0,0,1.49,1.46,3.42,3.42,0,0,0,2.78.41,4.38,4.38,0,0,0,.9-.33,6.32,6.32,0,0,0,.8-.49,4.16,4.16,0,0,0,.65-.59Z"/><path class="cls-2" d="M25.84,23A7.19,7.19,0,0,1,23,22.4a7.25,7.25,0,0,1-3.91-3.86,7,7,0,0,1-.58-2.82A10.2,10.2,0,0,1,19,12.39a8,8,0,0,1,1.5-2.65A6.88,6.88,0,0,1,22.83,8a7.08,7.08,0,0,1,3-.63,6.82,6.82,0,0,1,4.81,1.91,6.14,6.14,0,0,1,1.37,2,6,6,0,0,1,.5,2.39H21.36a9.62,9.62,0,0,0,.39,2.8,6.92,6.92,0,0,0,1.09,2.23,5.16,5.16,0,0,0,1.67,1.46,4.36,4.36,0,0,0,2.12.53,5.51,5.51,0,0,0,1.86-.32,6.49,6.49,0,0,0,1.62-.82,6.07,6.07,0,0,0,1.24-1.18A4.07,4.07,0,0,0,32.07,17l.86.38a7,7,0,0,1-1,2.17,8.82,8.82,0,0,1-1.68,1.77,8,8,0,0,1-2.09,1.19A6.28,6.28,0,0,1,25.84,23Zm3-10.49a4.12,4.12,0,0,0-.3-1.58,3.94,3.94,0,0,0-.83-1.27,3.9,3.9,0,0,0-1.23-.84,3.64,3.64,0,0,0-1.51-.31,2.91,2.91,0,0,0-1.29.3,3.67,3.67,0,0,0-1.1.84,4.57,4.57,0,0,0-.79,1.26,4.88,4.88,0,0,0-.38,1.59Z"/><path class="cls-2" d="M37.82,7.65,43.12,19,48.21,7.65h1.35L42.8,22.81h-1L34.7,7.65Z"/><path class="cls-2" d="M58.77,23a7.19,7.19,0,0,1-2.86-.57A7.25,7.25,0,0,1,52,18.54a7,7,0,0,1-.58-2.82,10.2,10.2,0,0,1,.52-3.33,7.82,7.82,0,0,1,1.5-2.65A6.88,6.88,0,0,1,55.76,8a7.08,7.08,0,0,1,3-.63A6.82,6.82,0,0,1,63.6,9.28a6.14,6.14,0,0,1,1.37,2,6,6,0,0,1,.49,2.39H54.29a9.62,9.62,0,0,0,.39,2.8,6.92,6.92,0,0,0,1.09,2.23,5.16,5.16,0,0,0,1.67,1.46,4.36,4.36,0,0,0,2.12.53,5.51,5.51,0,0,0,1.86-.32A6.49,6.49,0,0,0,63,19.56a6.07,6.07,0,0,0,1.24-1.18A4.07,4.07,0,0,0,65,17l.86.38a7,7,0,0,1-1,2.17,8.82,8.82,0,0,1-1.68,1.77,8,8,0,0,1-2.09,1.19A6.28,6.28,0,0,1,58.77,23Zm3-10.49a4.12,4.12,0,0,0-.3-1.58,3.94,3.94,0,0,0-.83-1.27,3.9,3.9,0,0,0-1.23-.84,3.64,3.64,0,0,0-1.51-.31,2.91,2.91,0,0,0-1.29.3,3.67,3.67,0,0,0-1.1.84,4.57,4.57,0,0,0-.79,1.26,4.88,4.88,0,0,0-.38,1.59Z"/><path class="cls-2" d="M73.08,22.65h-3V.85L72.22,0h.86Z"/><path class="cls-2" d="M85.25,23a8.17,8.17,0,0,1-3.17-.6,7.89,7.89,0,0,1-2.51-1.63,7.65,7.65,0,0,1-1.65-2.42,7.53,7.53,0,0,1-.59-3,8.27,8.27,0,0,1,.59-3.11A8,8,0,0,1,79.57,9.7,7.61,7.61,0,0,1,82.08,8a8,8,0,0,1,3.17-.62,8.5,8.5,0,0,1,3.16.57,7.64,7.64,0,0,1,2.5,1.57,7.26,7.26,0,0,1,1.65,2.33,7.17,7.17,0,0,1,.59,2.88,8.71,8.71,0,0,1-.59,3.2,8.22,8.22,0,0,1-1.65,2.62,7.86,7.86,0,0,1-2.5,1.78A7.63,7.63,0,0,1,85.25,23Zm.58-1.1a3,3,0,0,0,1.61-.45,4.21,4.21,0,0,0,1.26-1.23,6.21,6.21,0,0,0,.82-1.78,7.77,7.77,0,0,0,.29-2.13,15.5,15.5,0,0,0-.28-3.05,7.6,7.6,0,0,0-.91-2.48A4.74,4.74,0,0,0,87,9.09a4.63,4.63,0,0,0-2.46-.61,2.8,2.8,0,0,0-1.45.43,4.46,4.46,0,0,0-1.24,1.18A6.33,6.33,0,0,0,81,11.84,6.78,6.78,0,0,0,80.65,14,13.14,13.14,0,0,0,81,17.05a8.62,8.62,0,0,0,1,2.51,5.38,5.38,0,0,0,1.63,1.69A4,4,0,0,0,85.83,21.87Z"/><path class="cls-2" d="M99.52,7.37h.85v3.37c.3-.38.64-.77,1-1.17a8.46,8.46,0,0,1,1.21-1.1,6.49,6.49,0,0,1,1.47-.79,4.83,4.83,0,0,1,1.76-.31,5.11,5.11,0,0,1,2.42.56,5.72,5.72,0,0,1,1.85,1.5,7.05,7.05,0,0,1,1.19,2.24,8.67,8.67,0,0,1,.42,2.73,11,11,0,0,1-.52,3.43,8.16,8.16,0,0,1-1.46,2.72,6.65,6.65,0,0,1-2.32,1.78,7,7,0,0,1-3,.64,8.26,8.26,0,0,1-1.15-.07,7.25,7.25,0,0,1-1-.19,6.08,6.08,0,0,1-.93-.34,6.74,6.74,0,0,1-.9-.5V29h-3V8.2Zm.85,11.23a2.89,2.89,0,0,0,.29,1.27,3.29,3.29,0,0,0,.82,1,4.06,4.06,0,0,0,1.26.7,4.67,4.67,0,0,0,1.62.26,3.13,3.13,0,0,0,1.57-.42,4.22,4.22,0,0,0,1.29-1.21,6.32,6.32,0,0,0,.86-1.87,8.55,8.55,0,0,0,.32-2.4,13,13,0,0,0-.29-2.9,6.69,6.69,0,0,0-.82-2.05,3.45,3.45,0,0,0-1.23-1.23,3,3,0,0,0-1.56-.41,4,4,0,0,0-1.24.19,5.49,5.49,0,0,0-1.12.54,6,6,0,0,0-1,.77,7.72,7.72,0,0,0-.8.93Z"/><path class="cls-2" d="M122.3,23a7.23,7.23,0,0,1-2.86-.57,7.25,7.25,0,0,1-3.91-3.86,7,7,0,0,1-.58-2.82,10.2,10.2,0,0,1,.52-3.33A8,8,0,0,1,117,9.74,6.88,6.88,0,0,1,119.29,8a7.07,7.07,0,0,1,3-.63,6.82,6.82,0,0,1,4.82,1.91,6.14,6.14,0,0,1,1.37,2,6,6,0,0,1,.49,2.39H117.82a9.62,9.62,0,0,0,.39,2.8,6.92,6.92,0,0,0,1.09,2.23A5.16,5.16,0,0,0,121,20.17a4.36,4.36,0,0,0,2.12.53,5.51,5.51,0,0,0,1.86-.32,6.49,6.49,0,0,0,1.62-.82,6.07,6.07,0,0,0,1.24-1.18,4.07,4.07,0,0,0,.72-1.36l.86.38a6.79,6.79,0,0,1-1,2.17,8.82,8.82,0,0,1-1.68,1.77,8.12,8.12,0,0,1-2.08,1.19A6.38,6.38,0,0,1,122.3,23Zm3-10.49a4.12,4.12,0,0,0-.3-1.58,3.94,3.94,0,0,0-.83-1.27,3.9,3.9,0,0,0-1.23-.84,3.64,3.64,0,0,0-1.51-.31,2.91,2.91,0,0,0-1.29.3,3.67,3.67,0,0,0-1.1.84,4.57,4.57,0,0,0-.79,1.26,4.88,4.88,0,0,0-.38,1.59Z"/><path class="cls-2" d="M143.91,21.2a8.68,8.68,0,0,1-1.12.74,7.77,7.77,0,0,1-1.25.55,8.74,8.74,0,0,1-1.31.35,6.42,6.42,0,0,1-1.29.13,5.17,5.17,0,0,1-2.47-.62,6.71,6.71,0,0,1-2-1.65,7.77,7.77,0,0,1-1.36-2.43,8.57,8.57,0,0,1-.5-2.92,7.33,7.33,0,0,1,.63-3,8.4,8.4,0,0,1,1.69-2.55A8.27,8.27,0,0,1,137.42,8a7.09,7.09,0,0,1,3.06-.67,4.52,4.52,0,0,1,1.91.38,6.19,6.19,0,0,1,1.52,1V.85L146,0h.87V22.65h-3Zm0-8.78a3.82,3.82,0,0,0-.33-1.6,4.15,4.15,0,0,0-.86-1.25,4,4,0,0,0-1.19-.8,3.44,3.44,0,0,0-1.34-.29,3.33,3.33,0,0,0-1.67.44,4.31,4.31,0,0,0-1.36,1.24,6.45,6.45,0,0,0-.91,1.9,8.18,8.18,0,0,0-.34,2.44,9.24,9.24,0,0,0,.37,2.68,7.41,7.41,0,0,0,1,2.18,4.92,4.92,0,0,0,1.49,1.46,3.4,3.4,0,0,0,1.84.54,3.51,3.51,0,0,0,.95-.13,4.86,4.86,0,0,0,.9-.33,6.19,6.19,0,0,0,.79-.49,4.77,4.77,0,0,0,.66-.59Z"/><path class="cls-2" d="M158.26.84,160.37,0h.88V10.47a5.27,5.27,0,0,1,1-1.2,7.63,7.63,0,0,1,1.29-1A7.27,7.27,0,0,1,165,7.62a4.46,4.46,0,0,1,1.44-.25,5.35,5.35,0,0,1,2.4.53,5.7,5.7,0,0,1,1.89,1.43,6.77,6.77,0,0,1,1.24,2.12,7.33,7.33,0,0,1,.45,2.58,9.38,9.38,0,0,1-.65,3.49,9,9,0,0,1-1.79,2.83,8.46,8.46,0,0,1-2.66,1.92A7.78,7.78,0,0,1,164,23a11,11,0,0,1-3.14-.44,7.91,7.91,0,0,1-2.62-1.33Zm3,19.36c.19.18.39.36.61.54a4,4,0,0,0,.74.51,4.11,4.11,0,0,0,.91.36,4,4,0,0,0,1.14.14,3.71,3.71,0,0,0,1.89-.5A4.66,4.66,0,0,0,168,19.84a7.1,7.1,0,0,0,.93-2.14,10.4,10.4,0,0,0,.33-2.7,6.23,6.23,0,0,0-.34-2.09,5.6,5.6,0,0,0-.94-1.7,4.47,4.47,0,0,0-1.39-1.14,3.61,3.61,0,0,0-1.71-.42,3.79,3.79,0,0,0-1,.15,5,5,0,0,0-1,.4,5.26,5.26,0,0,0-.9.57,3.7,3.7,0,0,0-.67.71Z"/><path class="cls-2" d="M176.09,26.19a3.44,3.44,0,0,1,.39.19,4.12,4.12,0,0,0,.47.23,3.69,3.69,0,0,0,.56.18,2.91,2.91,0,0,0,.69.08,1.59,1.59,0,0,0,.88-.27,3.06,3.06,0,0,0,.74-.66,5.33,5.33,0,0,0,.61-.86c.17-.31.32-.61.44-.88l1-2.26L174.21,7.65h3.39l5.77,10.84L188.1,7.65h1.6L182,25.28a9.14,9.14,0,0,1-1.11,1.91,7.23,7.23,0,0,1-1.32,1.33,5.31,5.31,0,0,1-1.46.78,4.18,4.18,0,0,1-1.44.26,3.22,3.22,0,0,1-1-.16,2.77,2.77,0,0,1-.84-.43Z"/></g></g></svg>