{
    "asset" : {
        "generator" : "Khronos glTF Blender I/O v3.2.43",
        "version" : "2.0"
    },
    "scene" : 0,
    "scenes" : [
        {
            "name" : "Scene",
            "nodes" : [
                0,
                1,
                2,
                3
            ]
        }
    ],
    "nodes" : [
        {
            "mesh" : 0,
            "name" : "Stage",
            "translation" : [
                0,
                -0.0020621418952941895,
                -5.225435733795166
            ]
        },
        {
            "mesh" : 1,
            "name" : "cerS",
            "rotation" : [
                0.6123724579811096,
                -0.3535533845424652,
                0.3535534143447876,
                0.6123723983764648
            ],
            "scale" : [
                0.06243840605020523,
                0.06243840605020523,
                0.09374109655618668
            ],
            "translation" : [
                -6.819119453430176,
                1.7774676084518433,
                -0.9536706805229187
            ]
        },
        {
            "mesh" : 2,
            "name" : "cer",
            "rotation" : [
                0.5000000596046448,
                -0.5,
                0.5,
                0.5
            ],
            "scale" : [
                0.0812811627984047,
                0.0812811627984047,
                0.09374109655618668
            ],
            "translation" : [
                0.047416746616363525,
                6.39872407913208,
                -3.2851667404174805
            ]
        },
        {
            "mesh" : 3,
            "name" : "cerS.001",
            "rotation" : [
                0.34419453144073486,
                -0.6176812052726746,
                0.6176813244819641,
                0.3441944718360901
            ],
            "scale" : [
                0.06243840232491493,
                0.06243840232491493,
                0.09374109655618668
            ],
            "translation" : [
                4.317685127258301,
                1.7592192888259888,
                -2.5398542881011963
            ]
        }
    ],
    "materials" : [
        {
            "doubleSided" : true,
            "name" : "Material.001",
            "normalTexture" : {
                "index" : 0
            },
            "pbrMetallicRoughness" : {
                "baseColorTexture" : {
                    "index" : 1
                },
                "metallicFactor" : 0,
                "metallicRoughnessTexture" : {
                    "index" : 2
                }
            }
        },
        {
            "doubleSided" : true,
            "name" : "Material.002",
            "pbrMetallicRoughness" : {
                "baseColorFactor" : [
                    0.1651322841644287,
                    0.16513223946094513,
                    0.1946178823709488,
                    1
                ],
                "metallicFactor" : 0,
                "roughnessFactor" : 0.9272727370262146
            }
        },
        {
            "doubleSided" : true,
            "name" : "Material",
            "normalTexture" : {
                "index" : 3
            },
            "pbrMetallicRoughness" : {
                "baseColorTexture" : {
                    "index" : 4
                },
                "metallicFactor" : 0,
                "roughnessFactor" : 0.8272727131843567
            }
        },
        {
            "doubleSided" : true,
            "name" : "Material.003",
            "normalTexture" : {
                "index" : 5
            },
            "pbrMetallicRoughness" : {
                "baseColorTexture" : {
                    "index" : 6
                },
                "metallicFactor" : 0,
                "roughnessFactor" : 0.8272727131843567
            }
        }
    ],
    "meshes" : [
        {
            "name" : "Cylinder",
            "primitives" : [
                {
                    "attributes" : {
                        "POSITION" : 0,
                        "NORMAL" : 1,
                        "TEXCOORD_0" : 2
                    },
                    "indices" : 3,
                    "material" : 0
                },
                {
                    "attributes" : {
                        "POSITION" : 4,
                        "NORMAL" : 5,
                        "TEXCOORD_0" : 6
                    },
                    "indices" : 7,
                    "material" : 1
                }
            ]
        },
        {
            "name" : "Object005.002",
            "primitives" : [
                {
                    "attributes" : {
                        "POSITION" : 8,
                        "NORMAL" : 9,
                        "TEXCOORD_0" : 10
                    },
                    "indices" : 11,
                    "material" : 2
                }
            ]
        },
        {
            "name" : "Object005.003",
            "primitives" : [
                {
                    "attributes" : {
                        "POSITION" : 12,
                        "NORMAL" : 13,
                        "TEXCOORD_0" : 14
                    },
                    "indices" : 15,
                    "material" : 2
                }
            ]
        },
        {
            "name" : "Object005.001",
            "primitives" : [
                {
                    "attributes" : {
                        "POSITION" : 16,
                        "NORMAL" : 17,
                        "TEXCOORD_0" : 18
                    },
                    "indices" : 11,
                    "material" : 3
                }
            ]
        }
    ],
    "textures" : [
        {
            "sampler" : 0,
            "source" : 0
        },
        {
            "sampler" : 0,
            "source" : 1
        },
        {
            "sampler" : 0,
            "source" : 2
        },
        {
            "sampler" : 0,
            "source" : 3
        },
        {
            "sampler" : 0,
            "source" : 4
        },
        {
            "sampler" : 0,
            "source" : 3
        },
        {
            "sampler" : 0,
            "source" : 4
        }
    ],
    "images" : [
        {
            "mimeType" : "image/png",
            "name" : "Wood09_2K_Normal",
            "uri" : "textures/Wood09_2K_Normal.png"
        },
        {
            "mimeType" : "image/png",
            "name" : "Wood09_2K_BaseColor",
            "uri" : "textures/Wood09_2K_BaseColor.png"
        },
        {
            "mimeType" : "image/png",
            "name" : "Wood09_2K_Roughness",
            "uri" : "textures/Wood09_2K_Roughness.png"
        },
        {
            "mimeType" : "image/png",
            "name" : "2K-velvet_2_normal",
            "uri" : "textures/2K-velvet_2_normal.png"
        },
        {
            "mimeType" : "image/png",
            "name" : "2K-velvet_2_basecolor",
            "uri" : "textures/2K-velvet_2_basecolor.png"
        }
    ],
    "accessors" : [
        {
            "bufferView" : 0,
            "componentType" : 5126,
            "count" : 41,
            "max" : [
                8.394207954406738,
                1.999999761581421,
                9.906000137329102
            ],
            "min" : [
                -8.394207954406738,
                0,
                1.9495307207107544
            ],
            "type" : "VEC3"
        },
        {
            "bufferView" : 1,
            "componentType" : 5126,
            "count" : 41,
            "type" : "VEC3"
        },
        {
            "bufferView" : 2,
            "componentType" : 5126,
            "count" : 41,
            "type" : "VEC2"
        },
        {
            "bufferView" : 3,
            "componentType" : 5123,
            "count" : 102,
            "type" : "SCALAR"
        },
        {
            "bufferView" : 4,
            "componentType" : 5126,
            "count" : 64,
            "max" : [
                8.394207954406738,
                1.999999761581421,
                9.906000137329102
            ],
            "min" : [
                -8.394207954406738,
                0,
                1.9495307207107544
            ],
            "type" : "VEC3"
        },
        {
            "bufferView" : 5,
            "componentType" : 5126,
            "count" : 64,
            "type" : "VEC3"
        },
        {
            "bufferView" : 6,
            "componentType" : 5126,
            "count" : 64,
            "type" : "VEC2"
        },
        {
            "bufferView" : 7,
            "componentType" : 5123,
            "count" : 96,
            "type" : "SCALAR"
        },
        {
            "bufferView" : 8,
            "componentType" : 5126,
            "count" : 7011,
            "max" : [
                4.198999881744385,
                30.209299087524414,
                -1.8158999681472778
            ],
            "min" : [
                -2.5648999214172363,
                -76.46749877929688,
                -108.13150024414062
            ],
            "type" : "VEC3"
        },
        {
            "bufferView" : 9,
            "componentType" : 5126,
            "count" : 7011,
            "type" : "VEC3"
        },
        {
            "bufferView" : 10,
            "componentType" : 5126,
            "count" : 7011,
            "type" : "VEC2"
        },
        {
            "bufferView" : 11,
            "componentType" : 5123,
            "count" : 31680,
            "type" : "SCALAR"
        },
        {
            "bufferView" : 12,
            "componentType" : 5126,
            "count" : 4663,
            "max" : [
                3.0938796997070312,
                36.58616638183594,
                47.48218536376953
            ],
            "min" : [
                -3.67002010345459,
                -34.49513244628906,
                -58.83341598510742
            ],
            "type" : "VEC3"
        },
        {
            "bufferView" : 13,
            "componentType" : 5126,
            "count" : 4663,
            "type" : "VEC3"
        },
        {
            "bufferView" : 14,
            "componentType" : 5126,
            "count" : 4663,
            "type" : "VEC2"
        },
        {
            "bufferView" : 15,
            "componentType" : 5123,
            "count" : 21120,
            "type" : "SCALAR"
        },
        {
            "bufferView" : 16,
            "componentType" : 5126,
            "count" : 7011,
            "max" : [
                4.198999881744385,
                30.209299087524414,
                -1.8158999681472778
            ],
            "min" : [
                -2.5648999214172363,
                -76.46749877929688,
                -108.13150024414062
            ],
            "type" : "VEC3"
        },
        {
            "bufferView" : 17,
            "componentType" : 5126,
            "count" : 7011,
            "type" : "VEC3"
        },
        {
            "bufferView" : 18,
            "componentType" : 5126,
            "count" : 7011,
            "type" : "VEC2"
        }
    ],
    "bufferViews" : [
        {
            "buffer" : 0,
            "byteLength" : 492,
            "byteOffset" : 0
        },
        {
            "buffer" : 0,
            "byteLength" : 492,
            "byteOffset" : 492
        },
        {
            "buffer" : 0,
            "byteLength" : 328,
            "byteOffset" : 984
        },
        {
            "buffer" : 0,
            "byteLength" : 204,
            "byteOffset" : 1312
        },
        {
            "buffer" : 0,
            "byteLength" : 768,
            "byteOffset" : 1516
        },
        {
            "buffer" : 0,
            "byteLength" : 768,
            "byteOffset" : 2284
        },
        {
            "buffer" : 0,
            "byteLength" : 512,
            "byteOffset" : 3052
        },
        {
            "buffer" : 0,
            "byteLength" : 192,
            "byteOffset" : 3564
        },
        {
            "buffer" : 0,
            "byteLength" : 84132,
            "byteOffset" : 3756
        },
        {
            "buffer" : 0,
            "byteLength" : 84132,
            "byteOffset" : 87888
        },
        {
            "buffer" : 0,
            "byteLength" : 56088,
            "byteOffset" : 172020
        },
        {
            "buffer" : 0,
            "byteLength" : 63360,
            "byteOffset" : 228108
        },
        {
            "buffer" : 0,
            "byteLength" : 55956,
            "byteOffset" : 291468
        },
        {
            "buffer" : 0,
            "byteLength" : 55956,
            "byteOffset" : 347424
        },
        {
            "buffer" : 0,
            "byteLength" : 37304,
            "byteOffset" : 403380
        },
        {
            "buffer" : 0,
            "byteLength" : 42240,
            "byteOffset" : 440684
        },
        {
            "buffer" : 0,
            "byteLength" : 84132,
            "byteOffset" : 482924
        },
        {
            "buffer" : 0,
            "byteLength" : 84132,
            "byteOffset" : 567056
        },
        {
            "buffer" : 0,
            "byteLength" : 56088,
            "byteOffset" : 651188
        }
    ],
    "samplers" : [
        {
            "magFilter" : 9729,
            "minFilter" : 9987
        }
    ],
    "buffers" : [
        {
            "byteLength" : 707276,
            "uri" : "Stage.bin"
        }
    ]
}
